<?xml version="1.0" encoding="UTF-8"?><svg id="a" xmlns="http://www.w3.org/2000/svg" viewBox="0 0 898 742.88"><defs><style>.b{fill:#666;}</style></defs><path class="b" d="M590.9001,83.2493c-34.2766-32.2095-81.8299-49.9484-133.9001-49.9484s-99.6235,17.7389-133.8997,49.9484c-36.3742,34.1815-55.6003,81.6091-55.6003,137.156,0,47.7184,31.2673,144.3415,92.9329,287.1855,45.805,106.1048,92.2122,199.5271,92.6757,200.4584,.7347,1.4762,2.2419,2.41,3.8913,2.41s3.1566-.9338,3.8913-2.41c.4635-.9312,46.8708-94.3536,92.6762-200.4584,61.6653-142.844,92.9325-239.4671,92.9325-287.1855,0-55.5469-19.2266-102.9745-55.5999-137.156Zm-133.4654,294.2809c-83.7744,0-151.6869-67.9126-151.6869-151.6869s67.9125-151.6869,151.6869-151.6869,151.6869,67.9125,151.6869,151.6869-67.9125,151.6869-151.6869,151.6869Z"/></svg>