<?xml version="1.0" encoding="UTF-8"?><svg id="a" xmlns="http://www.w3.org/2000/svg" viewBox="0 0 872.0416 742.88"><defs><style>.b{fill:#000;}</style></defs><path class="b" d="M775.5494,217.88H95.5494c-11.0457,0-20,8.9542-20,20v485c0,11.0457,8.9543,20,20,20H775.5494c11.0457,0,20-8.9543,20-20V237.88c0-11.0458-8.9543-20-20-20Zm-221.999,160.8701c-11.4883,7.8096-29.7012,11.6064-55.6797,11.6064-7.7031,0-15.9385-.2969-24.5332-.8838-1.9219,7.25-5.6885,21.8633-11.2402,43.6055l-27.3882,108.7207-9.5034,41.5479c6.0635,.6084,11.2783,.916,15.5547,.916,8.3105,0,17.1289-1.0732,26.209-3.1895l7.9336-1.8496-5.4219,22.0742-3.0488,.6631c-9.291,2.0195-17.0742,3.0439-23.1328,3.0439-5.6777,0-14.7095-.582-27.6104-1.7793-9.2739-.7617-17.7446-1.1504-25.124-1.1504-12.6826,0-25.9375,1.1592-39.397,3.4453l-7.5791,1.2871,5.4956-21.5898,3.4888-.3447c12.2285-1.209,21.0928-3.6758,26.3467-7.332,3.4873-2.4297,6.6128-6.8643,9.2871-13.1777,2.9434-6.957,9.8589-32.1729,20.5542-74.9463l24.75-102.4824c-4.5767-.1924-8.2339-.2891-10.915-.2891-23.3838,0-42.0874,2.5293-55.5913,7.5186-13.1079,4.8408-23.0342,11.8779-29.5029,20.915-6.4438,8.9971-9.7104,18.8135-9.7104,29.1758,0,3.3594,.5898,6.4551,1.7524,9.2021,.4302,.9688,2.0503,3.6602,7.7085,9.957,5.3198,5.8037,7.9219,11.2617,7.9219,16.6475,0,4.8564-1.8877,9.2207-5.4585,12.6211-3.5581,3.3818-7.8711,5.0957-12.8228,5.0957-7.1436,0-13.186-3.4883-17.4741-10.0889-5.4639-8.4785-8.229-19.2461-8.229-32.0205,0-16.8057,5.2373-33.3027,15.5664-49.0332,10.2935-15.6787,24.6108-27.9707,42.5532-36.5337,17.7852-8.4888,39.6035-12.7925,64.8491-12.7925,11.8711,0,30.9502,1.7231,56.709,5.1211,17.916,2.3037,31.041,3.4727,38.9941,3.4727,8.707,0,12.5508-1.6274,14.2422-2.9922,2.1953-1.7734,3.2188-4.0132,3.2188-7.0469,0-.2373-.0391-1.2822-.5361-4.7617-.5625-3.5566-.6357-4.8599-.6357-5.5898,0-4.8735,1.6758-9.02,4.9805-12.3247,3.3037-3.3042,7.3193-4.98,11.9336-4.98,5.3018,0,9.9385,2.0674,13.4082,5.979,3.3643,3.7964,5.0684,8.7891,5.0684,14.8413,0,11.6084-6.0527,21.6079-17.9912,29.7217Z"/><path class="b" d="M775.5494,0H95.5494c-11.0457,0-20,8.9543-20,20.0001V149.0574c0,11.0457,8.9543,20,20,20H775.5494c11.0457,0,20-8.9543,20-20V20.0001c0-11.0458-8.9543-20.0001-20-20.0001Zm-69.5,112.3566l-37.4767-37.4766h74.9534l-37.4767,37.4766Z"/></svg>