<?xml version="1.0" encoding="UTF-8"?><svg id="a" xmlns="http://www.w3.org/2000/svg" viewBox="0 0 872.0416 719.5458"><defs><style>.b{fill:#000;}</style></defs><path class="b" d="M746.5737,281.8674c41.9163,84.137-38.0986,123.9997-136.8023,173.1729-98.7034,49.1731-178.7185,89.0359-220.6348,4.899-41.9163-84.137,38.0989-123.9998,136.8023-173.1729,98.7036-49.1732,178.7185-89.0359,220.6348-4.899m71.6059-35.6734c-18.0161-36.163-43.1341-62.3381-74.6564-77.7979-28.8035-14.1265-61.6922-18.567-97.7524-13.1983-50.1238,7.4626-101.3118,32.964-155.5054,59.9627-54.1936,26.9988-105.3815,52.5001-141.5287,88.0169-26.0054,25.5518-42.2701,54.4801-48.3423,85.9811-6.6452,34.4747-.8799,70.291,17.1363,106.4542,18.0162,36.1633,43.1343,62.338,74.6565,77.7981,28.8034,14.1263,61.6921,18.5668,97.7525,13.198,50.1236-7.4625,101.3115-32.9639,155.5051-59.9626,54.1936-26.9988,105.3815-52.5001,141.529-88.0171,26.0052-25.5517,42.2699-54.48,48.342-85.9813,6.6455-34.4746,.8798-70.2909-17.1362-106.4539h0Z"/><path class="b" d="M423.4495,481.2891c26.0355-15.002,49.6178-31.1059,68.9128-50.0643,26.0052-25.5517,42.2699-54.48,48.3421-85.9813,3.1381-16.2795,3.505-32.8584,1.125-49.6315-3.0551,1.5186-6.1224,3.0465-9.2016,4.5805-25.9261,12.9162-51.0549,25.44-72.6611,38.2353-8.6255,26.1097-33.103,47.2815-66.0096,67.3668-3.1819,14.3048-.253,29.6739,8.6058,47.4559,6.0648,12.1736,12.9008,21.4465,20.8866,28.0386Z"/><path class="b" d="M304.1047,502.3014c-6.8969-13.8439-12.123-27.668-15.6874-41.425-86.3551,42.2147-155.831,68.0573-193.8922-8.3415-41.9163-84.137,38.0989-123.9998,136.8023-173.1729,76.6903-38.2064,142.0936-70.7779,187.1152-43.9475,20.6986-11.5425,42.6631-22.4852,65.1343-33.6801,3.8077-1.8969,7.5995-3.7853,11.3791-5.6623-13.3386-14.8463-28.722-26.5849-46.0442-35.0804-28.8035-14.1265-61.6922-18.567-97.7524-13.1983-50.1238,7.4626-101.3118,32.964-155.5054,59.9627s-105.3815,52.5001-141.5287,88.0169c-26.0054,25.5519-42.2701,54.4801-48.3423,85.9811-6.6452,34.4747-.8799,70.291,17.1363,106.4542s43.1343,62.338,74.6565,77.7981c28.8034,14.1263,61.6921,18.5668,97.7525,13.198,41.3679-6.1589,83.4626-24.6081,127.3716-46.0422-6.827-9.4051-13.0328-19.6959-18.595-30.8608Z"/></svg>