<?xml version="1.0" encoding="UTF-8"?><svg id="Calque_1" xmlns="http://www.w3.org/2000/svg" viewBox="0 0 736.1232 736.1232"><defs><style>.cls-1{opacity:.5;}.cls-2{fill:#a1393e;}</style></defs><g><path class="cls-2" d="M243.7632,97.004c2.4292,0,4.1099-.624,5.1387-1.9072,.7803-.9731,1.7407-3.1226,1.8857-7.834l-.001-1.2275c0-5.2832-.9775-7.7661-1.7974-8.9185-1.0566-1.4849-2.8301-2.2065-5.4214-2.2065-1.98,0-3.415,.7856-4.5171,2.4727-1.2485,1.9111-1.8813,4.8486-1.8813,8.7305,0,3.8628,.6299,6.7334,1.8721,8.5312,1.1123,1.6099,2.6123,2.3594,4.7217,2.3594Z"/><path class="cls-2" d="M378.4903,96.9258c3.2852,0,4.5215-1.353,5.166-2.3706,1.1807-1.8657,1.7793-4.811,1.7793-8.7544,0-3.9087-.6006-6.814-1.7861-8.6362-1.0215-1.5693-2.7344-2.3325-5.2373-2.3325-2.4795,0-4.1807,.7583-5.2012,2.3179-1.1836,1.8076-1.7832,4.7178-1.7832,8.6509,0,3.915,.6094,6.8506,1.8125,8.7246,.6602,1.0308,1.9229,2.4004,5.25,2.4004Z"/><path class="cls-2" d="M705.9938,0H30.1294C13.4894,0,0,13.4894,0,30.1294V705.9938c0,16.64,13.4894,30.1294,30.1294,30.1294H705.9938c16.64,0,30.1294-13.4894,30.1294-30.1294V30.1294c0-16.64-13.4894-30.1294-30.1294-30.1294ZM407.4669,62.043h12.6084l1.1289,3.938c1.2148-1.207,2.6445-2.1948,4.2764-2.9517,2.5869-1.1987,5.5439-1.8066,8.791-1.8066,5.6201,0,9.9961,1.5942,13.0068,4.7378,2.9873,3.1211,4.501,7.5879,4.501,13.2778v30.4766h-15.9141v-27.5078c0-2.7114-.4404-4.7075-1.3105-5.9321-.4639-.6523-1.3555-1.521-3.7207-1.521-2.6445,0-4.4639,.8013-5.5625,2.4492-.8623,1.2939-1.8906,4.0728-1.8906,9.9648v22.5469h-15.9141V62.043Zm-46.0586,5.7466c4.0996-4.3574,9.873-6.5669,17.1602-6.5669,4.5234,0,8.5879,1.0078,12.083,2.9961,3.5361,2.0132,6.2881,4.937,8.1797,8.6899,1.8525,3.6782,2.792,8.0156,2.792,12.8921,0,7.6006-2.0742,13.6724-6.1641,18.0459-4.126,4.4121-9.8877,6.6494-17.125,6.6494-4.5264,0-8.5938-1.0156-12.0889-3.0186-3.5356-2.0269-6.2871-4.9712-8.1772-8.751-1.8506-3.7017-2.7891-8.0508-2.7891-12.9258,0-7.6284,2.062-13.688,6.1294-18.0112Zm-19.9106-22.856c5.3921,0,8.4844,2.8506,8.4844,7.8203,0,2.4087-.7544,4.3486-2.2422,5.7651-1.4595,1.3896-3.5596,2.0942-6.2422,2.0942-5.3921,0-8.4844-2.8647-8.4844-7.8594,0-4.9697,3.0923-7.8203,8.4844-7.8203Zm7.9375,17.1094v47.6719h-15.9141V62.043h15.9141Zm-55.0547,4.7808l6.9312-4.208,3.6802-9.8696h11.0059v9.2969h12.2266v12.9453h-12.2266v19.0547c0,1.6147,.5415,2.0737,.7192,2.2246,.5835,.4961,1.3931,.7363,2.4761,.7363,1.8726,0,4.1953-.4292,6.9033-1.2759l2.5967-.812v12.8843l-1.1831,.5293c-3.2139,1.4375-7.1685,2.1665-11.7544,2.1665-5.3345,0-9.3364-1.438-11.895-4.2734-2.5059-2.7749-3.7769-6.873-3.7769-12.1797v-19.0547h-5.7031v-8.1646Zm-12.0234-21.8901c5.3921,0,8.4844,2.8506,8.4844,7.8203,0,2.4087-.7544,4.3486-2.2422,5.7651-1.4595,1.3896-3.5596,2.0942-6.2422,2.0942-5.3921,0-8.4844-2.8647-8.4844-7.8594,0-4.9697,3.0923-7.8203,8.4844-7.8203Zm7.9375,17.1094v47.6719h-15.9141V62.043h15.9141Zm-64.3257,5.98c3.3657-4.5122,8.0518-6.8003,13.9272-6.8003,3.9995,0,7.4185,1.0288,10.2197,3.0684-.0996-1.1826-.1494-2.3086-.1494-3.373v-15.9844h15.9531V109.7149h-12.4858l-1.6729-4.1108c-3.0078,3.2485-7.0908,4.8921-12.1772,4.8921-5.7778,0-10.3872-2.2852-13.7012-6.792-3.1738-4.3164-4.7832-10.2876-4.7832-17.7471,0-7.5688,1.6382-13.6025,4.8696-17.9341Zm-36.7056-23.7842l.4834-.5625c4.3945-5.1104,7.4224-8.9834,8.999-11.5117l.5874-.9419h16.4692v3.6489l-.5859,.5854c-1.4136,1.4136-3.73,3.4321-7.0825,6.1699-3.2871,2.6851-5.9077,4.7183-7.7896,6.0435l-.5181,.3647h-10.563v-3.7964Zm-9.375,4.3667h36.8906v13.9219h-20.7812v8.5391h19.3359v13.9219h-19.3359v10.7266h20.7812v14h-36.8906V48.6055Zm-80.781,.441h17.1291l23.4408,40.4218c-.2623-5.4611-.3952-9.4998-.3952-12.0348v-28.387h13.1658v59.8522h-17.2501l-23.5129-40.8887c.3384,5.7076,.5093,9.9563,.5093,12.6596v28.2291h-13.0869V49.0466Zm-48.0676,43.0646l1.5165,.6764c3.822,1.7046,7.0928,2.9199,9.7217,3.6123,2.5941,.6835,4.9911,1.03,7.1249,1.03,2.4413,0,4.3085-.4501,5.5495-1.3378,1.1437-.8188,1.6998-2.0298,1.6998-3.7015,0-.9088-.2439-1.6909-.7456-2.3913-.5522-.7709-1.3947-1.537-2.5039-2.2766-1.1755-.783-3.6465-2.0719-7.3435-3.8304-3.5944-1.6896-6.3464-3.3502-8.1749-4.9338-1.8588-1.6085-3.3642-3.5081-4.4736-5.6458-1.1279-2.1711-1.6999-4.7281-1.6999-7.6,0-5.4127,1.8748-9.7396,5.5724-12.8601,3.6428-3.0754,8.7029-4.6347,15.0401-4.6347,3.0775,0,6.0568,.3702,8.8553,1.1005,2.7589,.7195,5.6863,1.7467,8.7009,3.0532l.9734,.4218-4.7644,11.4823-.9932-.4076c-3.0148-1.2368-5.5339-2.11-7.4869-2.5952-1.9206-.4764-3.8317-.718-5.6797-.718-2.0363,0-3.5905,.4551-4.6191,1.3525-.9998,.8719-1.4857,1.9877-1.4857,3.4105,0,.8817,.1921,1.6183,.587,2.2521,.418,.672,1.1187,1.3478,2.0824,2.0093,1.04,.7148,3.6002,2.0474,7.6095,3.9614,5.6011,2.6783,9.3555,5.3177,11.4784,8.0692,2.1392,2.773,3.2237,6.2012,3.2237,10.1887,0,5.5284-2.028,9.954-6.0278,13.1542-3.928,3.1422-9.4194,4.7352-16.3212,4.7352-6.293,0-11.9493-1.2053-16.8116-3.5823l-.6043-.2955v-13.6991Zm470.0302,547.8915c-3.2739,3.9662-15.8067,7.4485-37.2505,10.3499l-2.6653,.3607-109.0032-.9405,6.1712-.9094c15.5518-2.2919,26.923-4.27,33.8006-5.8793,6.7883-1.5881,10.7925-3.0751,11.9025-4.4199,1.2701-1.5386-1.3404-2.7464-7.758-3.5895-5.9197-.777-15.2665-1.2107-28.5682-1.3255-7.2307-.0624-13.5814,.0377-19.4152,.3058-6.4211,.2952-12.9554,.7735-19.4172,1.4218-6.8416,.6871-18.3829,2.1561-34.2988,4.3655-15.3141,2.1494-29.9596,3.7699-43.5112,4.8137-13.7664,1.0611-29.6642,1.8795-47.2505,2.432-17.8618,.5618-38.5055,.7468-61.3575,.5496-43.0682-.3716-76.5215-1.8503-99.4282-4.395-22.575-2.5071-32.3502-5.8034-29.0533-9.7975,1.601-1.9396,6.0965-3.792,13.3638-5.5057,7.1608-1.6894,16.8566-3.464,28.821-5.2743l3.8622-.5846,88.8852,3.7912-3.7595,.598c-11.4097,1.8152-19.6684,3.3431-24.5447,4.5406-4.7904,1.1778-7.7064,2.3657-8.6678,3.5305-1.0594,1.2834,1.7537,2.2942,8.3592,3.0042,6.4175,.69,15.043,1.0729,26.3643,1.1706,7.0151,.0605,12.9766-.0099,18.2252-.2153,5.5641-.2174,11.3067-.6125,17.071-1.1746,6.2289-.6064,18.1641-2.1285,35.4797-4.5241,24.2252-3.3463,47.1797-5.5314,70.1774-6.6805,23.1777-1.1579,51.0195-1.6061,82.7476-1.3323,43.9894,.3796,78.1481,1.9615,101.5317,4.7023,22.9583,2.6914,32.7772,6.2618,29.1865,10.6118Zm28.4425-42.1198l-337.5821,12.0123c45.5911,.1786,79.4869,.3625,100.997,.5481l224.6174,1.938-6.8085,8.2483-476.2402-4.1091,8.9115-10.796,333.8287-11.9989c-43.5899-.2096-75.7954-.4031-95.9656-.5771l-225.8735-1.9489,6.8495-8.298,476.2402,4.1091-8.9744,10.8723Zm39.2846-315.6186l-256.6294,262.3529s-.0006,.0007-.001,.0011l-9.0903,9.293c-.1436,.147-.294,.2853-.45,.4153-.035,.0292-.0734,.0538-.1091,.0822-.1233,.098-.2473,.1949-.3771,.2824-.0543,.0365-.1122,.067-.1676,.1017-.1158,.0727-.2312,.1464-.3513,.2107-.064,.0343-.1315,.062-.1967,.094-.1163,.057-.2321,.1151-.3516,.1644-.0085,.0035-.0164,.0082-.0248,.0117l-69.6953,28.3477c-.7319,.2979-1.499,.4424-2.2598,.4424-1.5396,0-3.0537-.5928-4.1968-1.7109-1.7075-1.6699-2.2617-4.1943-1.4106-6.4268l26.8037-70.3027c.0176-.0461,.041-.0894,.0596-.135,.0326-.0797,.0681-.1577,.1042-.236,.0599-.1298,.1241-.2568,.193-.3818,.0416-.0754,.083-.1505,.1279-.2243,.08-.1316,.1668-.2584,.2567-.3835,.0425-.0592,.0821-.1199,.127-.1776,.1401-.1807,.2881-.3554,.4485-.5194l9.0903-9.2939c.0044-.0045,.0093-.0083,.0137-.0128L537.3272,231.9171c1.7148-1.7539,4.3242-2.2866,6.5918-1.3447l19.8916,8.2661c.7051,.293,1.3477,.7178,1.8926,1.2515l14.2969,13.9854c.5459,.5337,.9844,1.1665,1.293,1.8647l8.7031,19.7041c.9912,2.2446,.5166,4.8662-1.1992,6.6201Z"/></g><g class="cls-1"><path class="cls-2" d="M286.6262,510.376s14.2234,6.9104,24.6236,23.4497c6.8816,10.9437,3.2032,20.3216,3.2032,20.3216l-65.3609,23.9166s45.0299-21.4086,50.0652-31.876c5.4144-11.2555-12.531-35.812-12.531-35.812Z"/><path class="cls-2" d="M249.0919,578.5635c-.1958,0-.3809-.1162-.4609-.3066-.1035-.2461,.0049-.5303,.2461-.6445,.4487-.2139,44.9282-21.4512,49.8296-31.6416,5.2231-10.8564-12.3066-35.0566-12.4844-35.2998-.1353-.1855-.127-.4395,.02-.6152,.1484-.1768,.397-.2266,.6021-.1299,.1436,.0703,14.4722,7.1641,24.8286,23.6328,6.9365,11.0312,3.3999,20.3789,3.2456,20.7715-.0522,.1328-.1592,.2373-.2935,.2871l-65.3613,23.916c-.0566,.0205-.1147,.0303-.1719,.0303Zm39.1934-66.6934c4.0439,5.9209,16.0063,24.7988,11.3228,34.5342-3.7544,7.8047-28.6748,21.252-41.9961,28.0088l56.4473-20.6543c.4683-1.4199,2.8711-9.96-3.2329-19.667-7.9849-12.6992-18.3516-19.7344-22.541-22.2217Z"/></g><g><polygon class="cls-2" points="577.6309 263.6479 582.7129 275.6133 328.8798 535.1085 322.3992 524.5727 577.6309 263.6479"/><path class="cls-2" d="M328.8799,538.1085c-.1108,0-.2222-.0059-.3335-.0186-.9185-.1025-1.7378-.623-2.2217-1.4092l-6.481-10.5361c-.7212-1.1729-.5522-2.6855,.4106-3.6699l255.2319-260.9243c.7012-.7173,1.7158-1.0356,2.7002-.8506,.9863,.186,1.8135,.8521,2.2061,1.7754l5.082,11.9653c.4727,1.1147,.2295,2.4048-.6172,3.2705l-253.833,259.4951c-.5674,.5801-1.3423,.9023-2.1445,.9023Zm-2.6982-13.1133l3.2402,5.2686,249.748-255.3184-2.541-5.9829-250.4473,256.0327Z"/></g><g class="cls-1"><rect class="cls-2" x="434.341" y="200.049" width="12" height="365" transform="translate(487.6212 963.934) rotate(-135.6319)"/><path class="cls-2" d="M317.0142,520.2071c-.7837,0-1.5371-.3066-2.0977-.8555l-8.5781-8.3916c-1.1846-1.1582-1.2056-3.0576-.0469-4.2422l255.2319-260.9243c.5566-.5688,1.3154-.8936,2.1113-.9023,.8213-.0112,1.5625,.2988,2.1309,.8555l8.5781,8.3911c1.1846,1.1587,1.2051,3.0581,.0469,4.2422l-255.2319,260.9248c-.5562,.5693-1.3159,.8936-2.1113,.9023h-.0332Zm-4.3359-11.4385l4.2891,4.1963,251.0366-256.6357-4.2891-4.1958-251.0366,256.6353Z"/></g><g><path class="cls-2" d="M270.2491,566.4455l-16.2622,6.6144,6.8835-17.0475s2.129,.6837,5.7033,4.18,3.6754,6.2531,3.6754,6.2531Z"/><path class="cls-2" d="M253.9874,576.0596c-.7798,0-1.5454-.3037-2.1191-.876-.853-.8506-1.1143-2.1299-.6631-3.2471l6.8833-17.0469c.5884-1.457,2.2007-2.2148,3.6987-1.7334,.4683,.1504,3.0005,1.0928,6.8843,4.8916,4.2173,4.125,4.5513,7.627,4.5757,8.2871,.0459,1.2598-.7002,2.4141-1.8677,2.8896l-16.2622,6.6143c-.3657,.1484-.7495,.2207-1.1299,.2207Zm8.3359-15.6328l-2.9009,7.1836,7.0229-2.8564c-.415-.6807-1.0376-1.5059-1.9692-2.417-.8154-.7979-1.5371-1.4229-2.1528-1.9102Z"/></g></svg>