<svg xmlns="http://www.w3.org/2000/svg" viewBox="0 0 1860 679.841" width="240" height="96">
<path fill="currentColor" d="M1742.5422,785.9173q0,16.6274-10.8893,25.4893-10.8921,8.856-31.005,8.856H1689.61v39.7218H1672.254V753.8215h30.5723q19.8951,0,29.8047,8.1329Q1742.5453,770.0858,1742.5422,785.9173ZM1689.61,805.6685h9.2206q13.36,0,19.606-4.6473t6.2449-14.523q0-9.1494-5.59-13.6516-5.5929-4.5036-17.4276-4.5021H1689.61Z" transform="translate(-26.1554 -196.83)"/>
<path fill="currentColor" d="M1763.7457,859.9844V753.8215h17.3565V859.9844Z" transform="translate(-26.1554 -196.83)"/>
<path fill="currentColor" d="M1879.42,785.9173q0,16.6274-10.8892,25.4893-10.8923,8.856-31.0081,8.856H1826.485v39.7218h-17.3565V753.8215h30.5724q19.8949,0,29.8076,8.1329Q1879.4228,770.0858,1879.42,785.9173Zm-52.9347,19.7512h9.2235q13.36,0,19.6031-4.6473,6.2463-4.6459,6.2478-14.523,0-9.1494-5.5928-13.6516t-17.4276-4.5021h-12.054Z" transform="translate(-26.1554 -196.83)"/>
<path fill="currentColor" d="M1651.7055,831.1578q0,14.1555-10.24,22.2172-10.2387,8.0648-28.2457,8.0617-18.01,0-29.4816-5.59v-16.414a80.2712,80.2712,0,0,0,15.43,5.3765,65.5823,65.5823,0,0,0,15.2135,1.9591q10.31,0,15.2136-3.9212a12.7872,12.7872,0,0,0,4.8993-10.5276,13.1921,13.1921,0,0,0-4.5021-10.095q-4.5036-4.1391-18.5894-9.8045-14.5245-5.8773-20.4774-13.4322a28.43,28.43,0,0,1-5.9544-18.1538q0-13.2885,9.44-20.913t25.344-7.6261a74.5008,74.5008,0,0,1,30.3531,6.6806l-5.5188,14.1614q-14.16-5.953-25.27-5.9545-8.4249,0-12.78,3.6664a12.0453,12.0453,0,0,0-4.3568,9.6948,13.6548,13.6548,0,0,0,1.7427,7.0807,17.8179,17.8179,0,0,0,5.7351,5.5543q3.9924,2.6141,14.3777,6.9,11.6925,4.8636,17.1371,9.0753a26.6871,26.6871,0,0,1,7.9877,9.5141A28.5877,28.5877,0,0,1,1651.7055,831.1578Z" transform="translate(-26.1554 -196.83)"/>
<polyline fill="currentColor" points="1456.421 555.406 1511.051 610.036 1456.421 664.666"/>
<path fill="currentColor" d="M1886.1554,545.0178c0-36.7476-10.4536-66.0707-31.0733-87.1586-20.6552-21.1235-49.713-31.835-86.3642-31.835-38.3555,0-68.9159,12.1445-90.8367,36.0941-21.7815,23.7939-32.8249,57.668-32.8249,100.6827,0,41.9625,11.98,74.983,35.6079,98.1412,23.5925,23.1286,56.5833,34.8566,98.0568,34.8566,19.7393,0,36.77-1.5027,50.6229-4.468a166.2561,166.2561,0,0,0,39.4521-13.7331l3.3551-1.6776V610.1533l-8.6486,4.059a207.51,207.51,0,0,1-40.59,14.477,181.2275,181.2275,0,0,1-41.0793,4.51c-17.7358,0-31.011-4.717-40.5813-14.4208-8.3552-8.4692-13.3611-20.1528-14.92-34.7914h159.8238Zm-158.0544-18.296c1.7013-12.18,5.658-21.8067,11.7992-28.6755,7.0066-7.8365,16.58-11.645,29.2623-11.645,12.7239,0,22.4661,3.8352,29.781,11.725,6.3249,6.8258,10.0712,16.4273,11.1708,28.5955Z" transform="translate(-26.1554 -196.83)"/>
<path fill="currentColor" d="M1573.3247,629.6422c-7.4749,0-13.207-1.7813-17.5224-5.4505-4.0191-3.4085-5.9722-8.8739-5.9722-16.71V493.7369h69.5768V430.6923H1549.83V377.7872h-53.6313l-20.3,54.436-38.4621,23.3523v38.1614h32.4544V607.4814c0,28.8414,6.7724,50.9637,20.1247,65.75,13.5123,14.9749,34.9588,22.5669,63.7469,22.5669,25.3441,0,47.12-3.9923,64.7191-11.8659l3.5922-1.6064V619.6747l-7.8809,2.4645C1598.2686,627.117,1584.5192,629.6422,1573.3247,629.6422Z" transform="translate(-26.1554 -196.83)"/>
<path fill="currentColor" d="M1363.7049,333.3292c-35.5161,0-42.97,21.3117-42.97,39.1912,0,17.98,7.4542,39.4136,42.97,39.4136,13.8561,0,24.5734-3.5181,31.8586-10.4536,7.3741-7.0155,11.1116-16.7592,11.1116-28.96C1406.6751,354.6409,1399.2209,333.3292,1363.7049,333.3292Z" transform="translate(-26.1554 -196.83)"/>
<rect fill="currentColor" x="1297.469" y="233.8623" width="79.9386" height="260.6606"/>
<path fill="currentColor" d="M1184.693,553.6871c0,27.9878-3.9213,48.0562-11.651,59.6509-7.3119,10.9707-19.1111,16.3042-36.0733,16.3042-11.9563,0-20.3-3.5626-25.5071-10.8937-5.5958-7.8765-8.4352-20.2669-8.4352-36.8305V430.6923h-79.9385v168.12c0,30.8124,8.038,54.9161,23.8917,71.6412,15.94,16.8185,39.6329,25.3456,70.4275,25.3456,17.8633,0,34.0668-3.3744,48.16-10.03a79.34,79.34,0,0,0,28.48-22.0587l7.9254,27.6426h62.6592V430.6923H1184.693Z" transform="translate(-26.1554 -196.83)"/>
<path fill="currentColor" d="M850.6483,426.6644c5.7929-5.0548,14.5467-7.6171,26.0184-7.6171a133.1672,133.1672,0,0,1,31.992,4.0442c10.9975,2.7312,25.187,7.65,42.1715,14.6178l5.5943,2.2955,26.8349-64.6761-5.4832-2.3755A340.3528,340.3528,0,0,0,928.77,355.7553a197.73,197.73,0,0,0-49.88-6.1989c-35.6954,0-64.199,8.7834-84.7178,26.1057-20.8257,17.5788-31.3859,41.9492-31.3859,72.4371,0,16.18,3.2217,30.5827,9.5747,42.8086A107.3106,107.3106,0,0,0,797.56,522.7087c10.2994,8.92,25.8005,18.2737,46.0452,27.7907,20.8345,9.9112,34.7529,17.17,41.3653,21.5755,6.2448,4.1643,10.9915,8.4782,14.1036,12.8232a22.3415,22.3415,0,0,1,4.2,13.4693c0,9.4177-3.1329,16.2376-9.5763,20.8494-6.99,5-17.5076,7.5356-31.257,7.5356-12.017,0-25.52-1.9517-40.1338-5.8017-14.806-3.899-33.2279-10.7456-54.7575-20.347l-8.5419-3.81v77.1629l3.404,1.6643c27.3877,13.3892,59.2478,20.178,94.6942,20.178,38.8786,0,69.8081-8.9731,91.93-26.6719,22.5314-18.0233,33.9541-42.9524,33.9541-74.0938,0-22.46-6.1085-41.77-18.1581-57.3895-11.9607-15.5-33.1079-30.3663-64.6539-45.4509-22.5892-10.7841-37.0084-18.29-42.862-22.3135-5.4284-3.7256-9.3748-7.5327-11.731-11.3191a23.28,23.28,0,0,1-3.3048-12.6838C842.28,437.862,845.017,431.5771,850.6483,426.6644Z" transform="translate(-26.1554 -196.83)"/>
<path fill="currentColor" d="M700.4963,196.83H31.6554a5.5,5.5,0,0,0-5.5,5.5V871.171a5.5,5.5,0,0,0,5.5,5.5H700.4963a5.5,5.5,0,0,0,5.5-5.5V202.33A5.5,5.5,0,0,0,700.4963,196.83ZM151.6356,459.433c2.3548,3.7848,6.3012,7.592,11.73,11.3175,5.858,4.0265,20.2788,11.5325,42.862,22.3135,31.549,15.0861,52.6962,29.9529,64.6539,45.451,12.05,15.62,18.1582,34.9292,18.1582,57.39,0,31.14-11.4228,56.0675-33.9527,74.0938C232.9612,687.697,202.03,696.67,163.1547,696.67c-35.4464,0-67.3066-6.7888-94.6943-20.1781l-3.4039-1.6642V597.665l8.5418,3.81c21.5281,9.6015,39.9515,16.4466,54.759,20.347,14.6119,3.85,28.1138,5.8018,40.1323,5.8018,13.7509,0,24.2682-2.5356,31.2585-7.5357,6.442-4.6117,9.5748-11.4331,9.5748-20.8493a22.3409,22.3409,0,0,0-4.2-13.4693c-3.1105-4.3421-7.8557-8.6575-14.1035-12.8232-6.6213-4.41-20.54-11.67-41.3638-21.5755C129.41,541.8538,113.9084,532.5,103.609,523.58A107.3383,107.3383,0,0,1,78.41,491.7792c-6.3531-12.2289-9.5748-26.6319-9.5748-42.8087,0-30.4878,10.56-54.86,31.3874-72.437,20.5188-17.3223,49.0209-26.1058,84.7163-26.1058a197.6877,197.6877,0,0,1,49.879,6.1989,340.3281,340.3281,0,0,1,49.0091,17.1979L289.31,376.2,262.474,440.8762l-5.5943-2.2955c-16.9815-6.9666-31.1711-11.8851-42.1714-14.6178a133.1876,133.1876,0,0,0-31.9921-4.0443c-11.47,0-20.224,2.5638-26.0183,7.6187-5.6314,4.9111-8.3686,11.196-8.3686,19.21A23.2964,23.2964,0,0,0,151.6356,459.433ZM636.2567,692.2244H539.0921L406.6515,461.9108c1.9058,32.1491,2.869,56.0809,2.869,71.3078V692.2244H335.8061V355.0958H432.289L564.3235,582.7789c-1.4774-30.76-2.2258-53.51-2.2258-67.7881V355.0958h74.159Z" transform="translate(-26.1554 -196.83)"/>
</svg>